<svg width="128" height="128" xmlns="http://www.w3.org/2000/svg">

 <g>
  <title>background</title>
  <rect fill="none" id="canvas_background" height="402" width="582" y="-1" x="-1"/>
 </g>
 <g>
  <title>Layer 1</title>
  <rect id="svg_1" width="128" height="128" fill-rule="evenodd" fill="none" clip-rule="evenodd"/>
  <path id="Codepen_1_" fill-rule="evenodd" fill="#0B0B0A" d="m117,73.204002l-13.760002,-9.204002l13.760002,-9.203999l0,18.408001zm-47.5,39.015999l0,-25.652l23.848,-15.947998l19.248001,12.871994l-43.096001,28.728004zm-5.5,-35.208l-19.452,-13.012001l19.452,-13.012001l19.456001,13.012001l-19.456001,13.012001zm-5.5,35.208l-43.096,-28.728004l19.251998,-12.871994l23.844002,15.947998l0,25.652zm-47.5,-57.424l13.764,9.203999l-13.764,9.204002l0,-18.408001zm47.5,-39.016002l0,25.651999l-23.844002,15.952l-19.251998,-12.875999l43.096,-28.728zm11,0l43.096001,28.728l-19.248001,12.875999l-23.848,-15.952l0,-25.651999zm58.452003,28.004001c-0.012001,-0.084 -0.032005,-0.16 -0.044006,-0.240002c-0.028,-0.155998 -0.056,-0.312 -0.096001,-0.459999c-0.023994,-0.091999 -0.059998,-0.18 -0.087997,-0.267998c-0.043999,-0.136002 -0.087997,-0.268002 -0.139999,-0.400002c-0.036003,-0.091999 -0.080002,-0.184002 -0.124001,-0.268002c-0.056,-0.127998 -0.115997,-0.247997 -0.187996,-0.363998c-0.048004,-0.088001 -0.104004,-0.172001 -0.156006,-0.256001c-0.071999,-0.116001 -0.147995,-0.228001 -0.231995,-0.335999c-0.060005,-0.080002 -0.124001,-0.16 -0.188004,-0.236c-0.087997,-0.104 -0.18,-0.204002 -0.276001,-0.300003c-0.071999,-0.071999 -0.139999,-0.147999 -0.215996,-0.211998c-0.104004,-0.091999 -0.208,-0.18 -0.312004,-0.264c-0.084,-0.063999 -0.164001,-0.128002 -0.248001,-0.188c-0.031998,-0.02 -0.059998,-0.048 -0.091995,-0.068001l-58.5,-39c-1.848,-1.232 -4.252003,-1.232 -6.104,0l-58.495992,39c-0.032,0.02 -0.06,0.048 -0.092,0.068001c-0.088,0.059998 -0.168,0.124001 -0.248,0.188c-0.10801,0.084 -0.21201,0.172001 -0.31201,0.264c-0.076,0.063999 -0.148,0.139999 -0.22,0.211998c-0.096,0.096001 -0.188,0.196003 -0.272,0.300003c-0.068,0.076 -0.132,0.155998 -0.192,0.236c-0.08,0.107998 -0.156,0.219997 -0.228,0.335999c-0.056,0.084 -0.108,0.167999 -0.16,0.256001c-0.068,0.116001 -0.128,0.236 -0.188,0.363998c-0.04,0.084 -0.084,0.176003 -0.12,0.268002c-0.056,0.132 -0.1,0.264 -0.144,0.400002c-0.028,0.087997 -0.06,0.175999 -0.084,0.267998c-0.04,0.147999 -0.068,0.304001 -0.096,0.459999c-0.016,0.080002 -0.036,0.156002 -0.044,0.240002c-0.032,0.231998 -0.052,0.472 -0.052,0.716l0,39c0,0.239998 0.02,0.480003 0.052,0.720001c0.008,0.075996 0.028,0.155998 0.044,0.236c0.028,0.155998 0.056,0.307999 0.096,0.459999c0.024,0.092003 0.056,0.18 0.084,0.267998c0.044,0.132004 0.088,0.268005 0.144,0.403999c0.036,0.088005 0.08,0.176003 0.12,0.264c0.06,0.124001 0.12,0.244003 0.188,0.368004c0.052,0.084 0.104,0.167999 0.16,0.251999c0.072,0.115997 0.148,0.223999 0.228,0.332001c0.06,0.084 0.124,0.164001 0.192,0.239998c0.084,0.099998 0.176,0.204002 0.272,0.295998c0.072,0.076004 0.144,0.148003 0.22,0.216003c0.1,0.092003 0.204,0.18 0.312,0.264c0.08,0.064003 0.16,0.127998 0.248,0.188004c0.032,0.019997 0.06,0.047997 0.092,0.067993l58.496002,39c0.924,0.616005 1.987999,0.924004 3.051998,0.924004s2.127998,-0.307999 3.052002,-0.924004l58.5,-39c0.031998,-0.019997 0.059998,-0.047997 0.091995,-0.067993c0.084,-0.060005 0.164001,-0.124001 0.248001,-0.188004c0.104004,-0.084 0.208,-0.171997 0.312004,-0.264c0.075996,-0.068001 0.143997,-0.139999 0.215996,-0.216003c0.096001,-0.091995 0.188004,-0.195999 0.276001,-0.295998c0.064003,-0.075996 0.127998,-0.155998 0.188004,-0.239998c0.084,-0.108002 0.159996,-0.216003 0.231995,-0.332001c0.052002,-0.084 0.108002,-0.167999 0.156006,-0.251999c0.071999,-0.124001 0.131996,-0.244003 0.187996,-0.368004c0.043999,-0.087997 0.087997,-0.175995 0.124001,-0.264c0.052002,-0.135994 0.096001,-0.271996 0.139999,-0.403999c0.028,-0.087997 0.064003,-0.175995 0.087997,-0.267998c0.040001,-0.152 0.068001,-0.304001 0.096001,-0.459999c0.012001,-0.080002 0.032005,-0.160004 0.044006,-0.236c0.031998,-0.239998 0.047997,-0.480003 0.047997,-0.720001l0,-39c0,-0.243999 -0.015999,-0.484001 -0.047997,-0.716z" clip-rule="evenodd"/>
 </g>
</svg>