<svg width="112.196" height="112.196" xmlns="http://www.w3.org/2000/svg">

 <g>
  <title>background</title>
  <rect fill="none" id="canvas_background" height="402" width="582" y="-1" x="-1"/>
 </g>
 <g>
  <title>Layer 1</title>
  <circle id="svg_2" fill="#F26798" r="56.098" cy="56.098" cx="56.098"/>
  <path id="svg_4" fill="#F1F2F2" d="m56.097,20.472c-19.668999,0 -35.671,15.983002 -35.671,35.626999c0,19.643997 16.002001,35.625999 35.671,35.625999c19.669998,0 35.672997,-15.980995 35.672997,-35.625999c0,-19.643997 -16.002998,-35.626999 -35.672997,-35.626999l0,0zm23.473,16.814999c4.069,5.043003 6.542,11.412003 6.655998,18.352001c-1.353996,-0.278 -7.087997,-1.347 -13.939995,-1.347c-2.211006,0 -4.538002,0.111 -6.871002,0.399002c-0.196999,-0.479 -0.393997,-0.956001 -0.600998,-1.438004c-0.605003,-1.422997 -1.257004,-2.834999 -1.932003,-4.225998c10.546001,-4.345001 15.632999,-10.375 16.688,-11.740002l0,0zm-23.473,-11.237999c7.601002,0 14.549004,2.823999 19.856003,7.474998c-0.840004,1.146 -5.396004,6.841003 -15.565002,10.683002c-4.707001,-8.604 -9.859001,-15.729 -11.084999,-17.383001c2.184998,-0.505999 4.459,-0.775 6.793999,-0.775l0,0zm-12.945,2.92c1.039001,1.431 6.199001,8.632002 11.027,17.167002c-12.957001,3.405998 -24.463001,3.627998 -27.240002,3.627998l-0.295,0c1.995001,-9.194 8.207003,-16.834 16.508001,-20.795l0,0zm-17.192001,27.177c0,-0.248001 0.004002,-0.495998 0.012001,-0.743c0.18,0.001999 0.445999,0.001999 0.791,0.001999c3.74,0 16.722,-0.308998 30.099998,-4.278999c0.812,1.588001 1.585003,3.200001 2.304001,4.811001c-0.338001,0.097 -0.671001,0.194 -1.001999,0.301998c-15.063,4.865002 -23.341999,17.744003 -24.616001,19.848999c-4.719999,-5.318001 -7.589001,-12.299999 -7.589001,-19.941998l0,0zm30.137001,30.094997c-6.911999,0 -13.291,-2.340996 -18.381001,-6.265999c0.861,-1.687996 7.110001,-12.938995 23.617001,-18.683998c0.009998,-0.004002 0.021,-0.007999 0.033001,-0.011002c4.138996,10.776001 5.892002,19.82 6.372997,22.623001c-3.582001,1.505997 -7.515999,2.337997 -11.641998,2.337997l0,0zm17.07,-5.305c-0.403999,-2.319 -2.028,-10.794998 -5.776001,-21.132996c2.101997,-0.327 4.147003,-0.456001 6.065002,-0.456001c6.298996,0 11.225998,1.379002 12.371002,1.729c-1.361,8.209003 -6.061005,15.313 -12.660004,19.859997l0,0z"/>
 </g>
</svg>