<svg width="430.00000000000006" height="430.00000000000006" xmlns="http://www.w3.org/2000/svg">

 <g>
  <title>background</title>
  <rect fill="none" id="canvas_background" height="432" width="432" y="-1" x="-1"/>
 </g>
 <g>
  <title>Layer 1</title>
  <path id="svg_3" fill="#2175AA" d="m314.833405,372.850159c-21.175995,13.527008 -44.64801,22.527008 -68.987976,26.661011c3.705017,-4.632996 7.255005,-9.364014 10.654999,-14.182007c1.409973,-1.998016 1.129974,-4.734009 -0.688995,-6.367004c-4.138,-3.713013 -6.556,-7.746002 -9.065002,-12.713013c-1.656982,-3.278992 -6.238983,-3.584991 -8.290985,-0.536987c-3.481995,5.173004 -7.149994,10.240997 -11.014008,15.186005l0,-46.393005c0,-3.040009 -0.681,-6.041992 -1.993011,-8.785004l-15.553986,-32.519989c-2.042007,-4.269012 -8.453003,-2.813995 -8.453003,1.916992l0,8.769012l-41.968002,0c-8.386002,-24.162018 -13.332993,-49.602036 -14.563995,-75.725021l28.944,0c1.817993,0 3.082001,-1.79599 2.477005,-3.51001c-2.227005,-6.304993 -2.572006,-12.98999 -1.147003,-19.303986c0.368988,-1.637009 -0.891998,-3.187012 -2.570007,-3.187012l-27.703003,0c1.231003,-26.123001 6.178009,-51.562988 14.564011,-75.724991l41.966995,0l0,47.146988c0,2.705002 2.328995,4.806 5.022995,4.563004c5.21701,-0.470993 9.974014,0.315002 14.814011,2.108002c2.988983,1.106995 6.162994,-1.117996 6.162994,-4.304993l0,-49.513l41.967957,0c8.386017,24.162003 13.333008,49.60199 14.564026,75.724991l-5.776001,0c-3.529022,0 -4.684021,4.737 -1.550018,6.361008l30.563995,15.840988c4.81601,2.496002 10.160004,3.799011 15.584015,3.799011l78.186981,0c-1.721008,24.938995 -8.359009,48.542007 -18.940002,69.859024c-2.760986,7.28598 -6.453979,11.047974 -12.52298,16.810974c-2.506012,2.379028 -2.561005,6.360016 -0.118011,8.803009l11.868011,11.868011c2.710999,2.710999 7.240997,2.321991 9.39798,-0.847015c23.997009,-35.266968 36.774017,-76.649017 36.774017,-119.492996c0,-117.453003 -95.585999,-212.996 -212.992981,-213.000001c-0.004974,0 -0.008987,0 -0.013992,0c-117.477997,0.004002 -212.992997,95.619996 -212.992997,213.000001c0,117.58403 95.718995,213.000015 213.000001,213.000015c43.440979,0 83.879974,-13.07901 117.599976,-35.497009c2.294983,-1.526001 2.622986,-4.770996 0.673981,-6.720001l-12.487,-12.487c-1.435974,-1.436981 -3.682983,-1.700989 -5.394989,-0.608002zm64.183014,-246.41301c12.350006,22.817001 20.084991,48.477997 21.964996,75.724991l-90.992981,0c-1.117004,-26.011993 -5.585999,-51.416992 -13.192993,-75.724991l82.220978,0zm-17.006012,-26l-74.718994,0c-10.449982,-24.849014 -24.350983,-48.251007 -41.445953,-69.624002c46.971954,7.977007 88.033936,33.522005 116.164948,69.624002zm-134.56897,-51.010994c12.421997,15.898003 22.920013,32.999992 31.389984,51.010994l-31.389984,0l0,-51.010994zm-26,51.010994l-31.389999,0c8.470001,-18.012009 18.968002,-35.113007 31.389999,-51.011002l0,51.011002zm-18.404999,-69.623995c-17.095001,21.374002 -30.994995,44.776003 -41.445007,69.623995l-74.718002,0c28.130005,-36.101997 69.192001,-61.646996 116.16301,-69.623995zm-133.169998,95.623995l82.220001,0c-7.60701,24.307999 -12.074997,49.713013 -13.193008,75.724991l-90.992996,0c1.880997,-27.246979 9.614998,-52.90799 21.966003,-75.724991zm0,177.450027c-12.351006,-22.817017 -20.085007,-48.478012 -21.966003,-75.725021l90.992996,0c1.117004,26.011993 5.585999,51.417007 13.193008,75.725021l-82.220001,0zm17.005997,26l74.718002,0c10.449997,24.848999 24.350998,48.251007 41.445999,69.623993c-46.971008,-7.97699 -88.033005,-33.522003 -116.164001,-69.623993zm134.569,51.010986c-12.421997,-15.89801 -22.919998,-33 -31.389999,-51.011017l31.389999,0l0,51.011017z"/>
  <path id="svg_4" fill="#2175AA" d="m402.283691,406.737122c5.858002,-5.858002 5.858002,-15.355011 0,-21.212982l-55.759979,-55.76001l23.348999,-22.496002c3.47998,-3.352997 5.131989,-8.177002 4.436981,-12.959015c-0.695007,-4.781982 -3.651001,-8.936981 -7.941986,-11.159973l-140,-72.560013c-5.768005,-2.990997 -12.804993,-1.925995 -17.432007,2.634003c-4.626984,4.559998 -5.791992,11.580994 -2.886993,17.391006l70.001007,140c2.133972,4.268982 6.171997,7.266998 10.875977,8.074982c0.847015,0.145996 1.696014,0.21701 2.541016,0.21701c3.847992,0 7.587982,-1.481995 10.406982,-4.197998l25.042999,-24.127014l56.154999,56.154999c2.929016,2.929016 6.768005,4.394012 10.605988,4.394012s7.677002,-1.463989 10.606018,-4.393005zm-108.528015,-67.791992l-40.251007,-80.501984l80.502014,41.722992l-40.251007,38.778992z"/>
 </g>
</svg>