<svg width="32" height="25" xmlns="http://www.w3.org/2000/svg">

 <g>
  <title>background</title>
  <rect fill="none" id="canvas_background" height="27" width="34" y="-1" x="-1"/>
 </g>
 <g>
  <title>Layer 1</title>
  <path id="svg_2" fill="#E02F2F" d="m31.67,5.71055c0,0 -0.312,-2.353 -1.271,-3.389c-1.217001,-1.358 -2.58,-1.366 -3.205,-1.443c-4.477001,-0.347 -11.191999,-0.347 -11.191999,-0.347l-0.015,0c0,0 -6.715,0 -11.191,0.347c-0.625,0.077 -1.987,0.085 -3.205,1.443c-0.958,1.036 -1.271,3.389 -1.271,3.389s-0.32,2.761 -0.32,5.522l0,2.587999c0,2.763001 0.32,5.523002 0.32,5.523002s0.312,2.351999 1.271,3.386c1.218,1.358 2.815,1.316999 3.527,1.459c2.559,0.262001 10.877,0.343 10.877,0.343s6.721999,-0.011999 11.199,-0.355c0.625,-0.08 1.987999,-0.088001 3.205,-1.446001c0.958,-1.033998 1.271,-3.386 1.271,-3.386s0.32,-2.761 0.32,-5.523l0,-2.588001c0,-2.762 -0.32,-5.523 -0.32,-5.523z"/>
  <polygon id="svg_3" points="12.99098502099514,6.216237276792526 12.99098502099514,18.216238230466843 22.99098502099514,12.216237276792526 " fill="#FFFFFF"/>
 </g>
</svg>